<svg width="1728" height="498" viewBox="0 0 1728 498" fill="none" xmlns="http://www.w3.org/2000/svg">
<path d="M323.271 72.7566L331.856 86.5551C333.74 89.6911 337.927 90.5273 340.859 88.2276L353.84 78.4014C357.608 75.6835 362.843 77.5651 363.68 82.1646L366.611 98.0538C367.24 101.608 370.799 103.908 374.358 102.862L390.061 98.2629C394.458 97.0085 398.855 100.772 397.808 105.371L394.667 121.26C394.039 124.814 396.552 128.369 400.32 128.578L416.442 130.041C421.048 130.459 423.561 135.686 421.048 139.449L412.464 153.248C410.58 156.384 411.627 160.565 414.977 162.029L429.633 169.137C433.82 171.228 434.239 176.872 430.679 179.59L417.698 189.417C414.767 191.716 414.348 195.898 416.861 198.616L427.958 210.532C431.098 213.877 429.633 219.522 425.026 220.777L409.323 225.167C405.764 226.212 403.88 229.976 405.136 233.321L410.998 248.374C412.673 252.764 409.323 257.155 404.717 256.736L388.596 255.064C384.827 254.646 381.686 257.573 381.896 261.336V277.643C381.896 282.243 377.08 285.379 372.893 283.288L358.446 275.971C355.096 274.298 351.118 275.971 349.862 279.316L343.999 294.578C342.324 298.968 336.671 300.013 333.531 296.459L322.643 284.333C320.131 281.616 315.943 281.616 313.431 284.333L302.543 296.459C299.403 299.804 293.75 298.759 292.075 294.578L286.212 279.316C284.956 275.971 280.978 274.298 277.628 275.971L263.181 283.288C258.994 285.379 254.178 282.452 254.178 277.643V261.336C254.178 257.573 251.038 254.855 247.478 255.064L231.357 256.736C226.75 257.155 223.4 252.555 225.075 248.374L230.938 233.321C232.194 229.976 230.31 226.003 226.75 225.167L211.048 220.777C206.651 219.522 204.976 214.087 208.116 210.532L219.213 198.616C221.726 195.898 221.307 191.716 218.376 189.417L205.394 179.59C201.626 176.872 202.254 171.019 206.441 169.137L221.097 162.029C224.447 160.356 225.494 156.384 223.61 153.248L215.026 139.449C212.513 135.477 215.026 130.459 219.632 130.041L235.753 128.578C239.522 128.16 242.035 124.814 241.407 121.26L238.266 105.371C237.428 100.772 241.616 97.0085 246.013 98.2629L261.716 102.862C265.275 103.908 268.834 101.608 269.462 98.0538L272.394 82.1646C273.231 77.5651 278.675 75.4744 282.234 78.4014L295.215 88.2276C298.147 90.5273 302.334 89.6911 304.218 86.5551L312.803 72.7566C315.315 68.7843 320.968 68.7843 323.271 72.7566Z" fill="#4343FF"/>
<path d="M289.562 167.256C289.562 161.402 293.749 157.639 301.286 157.639C308.824 157.639 313.011 161.402 313.011 167.256C313.011 173.11 308.824 176.873 301.286 176.873C293.749 176.873 289.562 173.11 289.562 167.256ZM306.73 167.256C306.73 164.12 304.846 162.238 301.496 162.029C298.146 162.029 296.261 163.911 296.261 167.256C296.261 170.601 298.146 172.482 301.496 172.482C304.846 172.482 306.73 170.601 306.73 167.256Z" fill="white"/>
<path d="M315.314 158.057H323.061L331.436 169.555V158.057H337.299V176.455H329.761L321.177 164.12V176.455H315.314V158.057Z" fill="white"/>
<path d="M249.362 187.326H255.434V205.724H249.362V187.326Z" fill="white"/>
<path d="M258.575 187.326H266.113L270.928 199.034L275.744 187.326H283.281V205.724H277.419V194.225L273.022 205.724H268.834L264.438 194.225V205.724H258.575V187.326Z" fill="white"/>
<path d="M284.956 205.724L294.168 187.326H301.496L310.709 205.724H303.8L302.125 201.961H293.331L291.656 205.724H285.165H284.956ZM300.45 198.407L297.728 192.135L294.797 198.407H300.45Z" fill="white"/>
<path d="M322.643 186.699C325.574 186.699 328.505 187.117 330.18 187.745V192.135C327.877 191.299 325.574 191.09 323.271 191.09C318.665 191.09 316.362 192.762 316.362 196.316C316.362 199.871 318.455 201.543 322.852 201.543C327.249 201.543 324.946 201.543 325.993 201.125V198.198H321.177V194.644H331.018V204.052C329.133 205.097 326.202 205.934 322.433 205.934C314.687 205.934 309.871 202.588 309.871 196.316C309.871 190.044 314.477 186.49 322.433 186.49L322.643 186.699Z" fill="white"/>
<path d="M334.158 187.326H340.23V205.724H334.158V187.326Z" fill="white"/>
<path d="M343.161 187.326H350.908L359.283 198.825V187.326H365.145V205.724H357.608L349.024 193.389V205.724H343.161V187.326Z" fill="white"/>
<path d="M368.495 187.326H386.711V191.299H374.358V194.435H385.454V197.989H374.358V201.334H386.92V205.515H368.495V187.117V187.326Z" fill="white"/>
<path d="M867.222 72.7566L875.806 86.5551C877.691 89.6911 881.878 90.5273 884.809 88.2276L897.79 78.4014C901.559 75.6835 906.793 77.5651 907.631 82.1646L910.562 98.0538C911.19 101.608 914.959 103.908 918.309 102.862L934.012 98.2629C938.409 97.0085 942.805 100.772 941.759 105.371L938.618 121.26C937.99 124.814 940.502 128.369 944.271 128.578L960.393 130.041C964.999 130.459 967.511 135.686 964.999 139.449L956.415 153.248C954.53 156.384 955.577 160.565 958.927 162.029L973.583 169.137C977.771 171.228 978.189 176.872 974.63 179.59L961.649 189.417C958.718 191.716 958.299 195.898 960.812 198.616L971.908 210.532C975.049 213.877 973.583 219.522 968.977 220.777L953.274 225.167C949.715 226.212 947.83 229.976 949.087 233.321L954.949 248.374C956.624 252.764 953.274 257.155 948.459 256.736L932.337 255.064C928.568 254.646 925.428 257.573 925.637 261.336V277.643C925.637 282.243 920.821 285.379 916.634 283.288L902.187 275.971C898.837 274.298 894.859 275.971 893.603 279.316L887.74 294.578C886.065 298.968 880.412 300.013 877.272 296.459L866.384 284.333C863.872 281.616 859.684 281.616 857.172 284.333L846.285 296.459C843.144 299.804 837.491 298.759 835.816 294.578L829.954 279.316C828.697 275.971 824.719 274.298 821.369 275.971L806.923 283.288C802.735 285.379 797.92 282.452 797.92 277.643V261.336C797.92 257.573 794.779 254.855 791.22 255.064L775.098 256.736C770.492 257.155 767.142 252.555 768.817 248.374L774.679 233.321C775.935 229.976 774.051 226.003 770.492 225.167L754.789 220.777C750.392 219.522 748.717 214.087 751.858 210.532L762.954 198.616C765.467 195.898 765.048 191.716 762.117 189.417L749.136 179.59C745.367 176.872 745.995 171.019 750.183 169.137L764.839 162.029C768.189 160.356 769.235 156.384 767.351 153.248L758.767 139.449C756.254 135.477 758.767 130.459 763.373 130.041L779.495 128.578C783.263 128.16 785.776 124.814 785.148 121.26L782.007 105.371C781.17 100.772 785.357 97.0085 789.754 98.2629L805.457 102.862C809.016 103.908 812.576 101.608 813.204 98.0538L816.135 82.1646C816.972 77.5651 822.207 75.4744 825.975 78.4014L838.957 88.2276C841.888 90.5273 846.075 89.6911 847.96 86.5551L856.544 72.7566C859.056 68.7843 864.709 68.7843 867.222 72.7566Z" fill="#B9F26D"/>
<path d="M833.722 167.256C833.722 161.402 837.909 157.639 845.447 157.639C852.984 157.639 857.171 161.402 857.171 167.256C857.171 173.11 852.984 176.873 845.447 176.873C837.909 176.873 833.722 173.11 833.722 167.256ZM850.681 167.256C850.681 164.12 848.796 162.238 845.447 162.029C842.097 162.029 840.212 163.911 840.212 167.256C840.212 170.601 842.097 172.482 845.447 172.482C848.796 172.482 850.681 170.601 850.681 167.256Z" fill="white"/>
<path d="M859.475 158.057H867.221L875.596 169.555V158.057H881.459V176.455H873.921L865.337 164.12V176.455H859.475V158.057Z" fill="white"/>
<path d="M779.076 187.326H796.663V191.508H784.938V194.853H795.407V198.825H784.938V205.515H778.866V187.117L779.076 187.326Z" fill="white"/>
<path d="M795.406 205.724L804.619 187.326H811.947L821.159 205.724H814.25L812.575 201.961H803.781L802.106 205.724H795.616H795.406ZM810.69 198.407L807.969 192.135L805.037 198.407H810.69Z" fill="white"/>
<path d="M822.625 187.326H836.025C840.422 187.326 842.725 189.208 842.725 192.135C842.725 195.062 841.259 196.107 838.537 196.316C841.678 196.316 843.353 198.198 843.353 200.916C843.353 203.633 841.05 205.724 837.072 205.724H822.625V187.326ZM836.862 192.971C836.862 191.717 835.815 191.089 833.931 191.089H828.278V194.644H833.931C835.815 194.644 836.653 194.225 836.653 192.971H836.862ZM837.49 200.079C837.49 198.825 836.444 198.198 834.141 198.198H828.487V201.961H835.397C836.862 201.961 837.7 201.334 837.7 200.079H837.49Z" fill="white"/>
<path d="M845.656 187.326H860.102C864.08 187.326 866.384 189.626 866.384 193.389C866.384 197.152 864.08 198.616 860.312 198.825L866.802 205.724H859.474L853.821 199.034H851.518V205.724H845.446V187.326H845.656ZM860.521 193.389C860.521 191.926 859.474 191.508 857.381 191.508H851.727V195.48H857.59C859.474 195.48 860.521 194.853 860.521 193.598V193.389Z" fill="white"/>
<path d="M868.896 187.326H874.968V205.724H868.896V187.326Z" fill="white"/>
<path d="M888.996 186.699C896.533 186.699 900.721 190.462 900.721 196.316C900.721 202.17 898.418 203.843 894.021 205.306L899.255 210.533H891.927L887.321 205.933C880.83 205.515 877.062 201.961 877.062 196.316C877.062 190.672 881.249 186.699 888.786 186.699H888.996ZM894.23 196.525C894.23 193.389 892.346 191.508 888.996 191.299C885.646 191.299 883.761 193.18 883.761 196.525C883.761 199.87 885.646 201.752 888.996 201.752C892.346 201.752 894.23 199.87 894.23 196.525Z" fill="white"/>
<path d="M903.023 187.326H909.095V196.943C909.095 200.288 910.561 201.752 913.492 201.752C916.423 201.752 917.68 200.288 917.68 196.943V187.326H923.751V197.989C923.751 203.215 920.192 206.142 913.492 206.142C906.792 206.142 903.233 203.215 903.233 198.407V187.326H903.023Z" fill="white"/>
<path d="M926.683 187.326H944.898V191.299H932.545V194.435H943.642V197.989H932.545V201.334H945.107V205.515H926.683V187.117V187.326Z" fill="white"/>
<path d="M590.431 460.159C652.988 460.159 703.701 409.52 703.701 347.053C703.701 284.586 652.988 233.947 590.431 233.947C527.873 233.947 477.16 284.586 477.16 347.053C477.16 409.52 527.873 460.159 590.431 460.159Z" fill="#BFABFF"/>
<path d="M562.166 329.701C562.166 323.847 566.353 320.084 573.891 320.084C581.428 320.084 585.616 323.847 585.616 329.701C585.616 335.555 581.428 339.318 573.891 339.318C566.353 339.318 562.166 335.555 562.166 329.701ZM579.125 329.701C579.125 326.565 577.241 324.683 573.891 324.474C570.541 324.474 568.657 326.356 568.657 329.701C568.657 333.046 570.541 334.928 573.891 334.928C577.241 334.928 579.125 333.046 579.125 329.701Z" fill="white"/>
<path d="M587.919 320.502H595.666L604.041 332.001V320.502H609.903V338.9H602.366L593.781 326.565V338.9H587.919V320.502Z" fill="white"/>
<path d="M529.713 353.744C525.107 353.744 523.013 355.416 523.013 358.971C523.013 362.525 525.316 363.988 529.922 363.988C534.529 363.988 534.11 363.57 536.413 362.734V367.542C534.11 368.379 531.597 368.797 528.666 368.797C520.919 368.797 516.522 365.452 516.522 359.18C516.522 352.908 520.919 349.354 528.666 349.354C536.413 349.354 533.9 349.772 535.785 350.399V354.998C534.319 354.371 532.225 353.744 529.713 353.744Z" fill="white"/>
<path d="M538.088 358.971C538.088 353.117 542.275 349.354 549.813 349.354C557.35 349.354 561.538 353.117 561.538 358.971C561.538 364.825 557.35 368.588 549.813 368.588C542.275 368.588 538.088 364.825 538.088 358.971ZM555.047 358.971C555.047 355.835 553.163 353.953 549.813 353.744C546.463 353.744 544.578 355.626 544.578 358.971C544.578 362.316 546.463 364.197 549.813 364.197C553.163 364.197 555.047 362.316 555.047 358.971Z" fill="white"/>
<path d="M563.841 349.98H571.588L579.963 361.479V349.98H585.825V368.378H578.288L569.703 356.043V368.378H563.841V349.98Z" fill="white"/>
<path d="M601.527 353.744C596.921 353.744 594.827 355.416 594.827 358.971C594.827 362.525 597.131 363.988 601.737 363.988C606.343 363.988 605.924 363.57 608.227 362.734V367.542C605.924 368.379 603.412 368.797 600.481 368.797C592.734 368.797 588.337 365.452 588.337 359.18C588.337 352.908 592.734 349.354 600.481 349.354C608.227 349.354 605.715 349.772 607.599 350.399V354.998C606.134 354.371 604.04 353.744 601.527 353.744Z" fill="white"/>
<path d="M609.902 358.971C609.902 353.117 614.09 349.354 621.627 349.354C629.165 349.354 633.352 353.117 633.352 358.971C633.352 364.825 629.165 368.588 621.627 368.588C614.09 368.588 609.902 364.825 609.902 358.971ZM626.862 358.971C626.862 355.835 624.977 353.953 621.627 353.744C618.277 353.744 616.393 355.626 616.393 358.971C616.393 362.316 618.277 364.197 621.627 364.197C624.977 364.197 626.862 362.316 626.862 358.971Z" fill="white"/>
<path d="M635.655 349.98H641.727V368.378H635.655V349.98Z" fill="white"/>
<path d="M644.24 349.98H664.131V354.58H657.221V368.169H651.15V354.58H644.24V349.98Z" fill="white"/>
<path d="M1406.77 72.7566L1415.36 86.5551C1417.24 89.6911 1421.43 90.5273 1424.36 88.2276L1437.34 78.4014C1441.11 75.6835 1446.35 77.5651 1447.18 82.1646L1450.12 98.0538C1450.74 101.608 1454.51 103.908 1457.86 102.862L1473.56 98.2629C1477.96 97.0085 1482.36 100.772 1481.31 105.371L1478.17 121.26C1477.54 124.814 1480.06 128.369 1483.82 128.578L1499.95 130.041C1504.55 130.459 1507.06 135.686 1504.55 139.449L1495.97 153.248C1494.08 156.384 1495.13 160.565 1498.48 162.029L1513.14 169.137C1517.32 171.228 1517.74 176.872 1514.18 179.59L1501.2 189.417C1498.27 191.716 1497.85 195.898 1500.36 198.616L1511.46 210.532C1514.6 213.877 1513.14 219.522 1508.53 220.777L1492.83 225.167C1489.27 226.212 1487.38 229.976 1488.64 233.321L1494.5 248.374C1496.18 252.764 1492.83 257.155 1488.01 256.736L1471.89 255.064C1468.12 254.646 1464.98 257.573 1465.19 261.336V277.643C1465.19 282.243 1460.37 285.379 1456.19 283.288L1441.74 275.971C1438.39 274.298 1434.41 275.971 1433.16 279.316L1427.29 294.578C1425.62 298.968 1419.97 300.013 1416.82 296.459L1405.94 284.333C1403.42 281.616 1399.24 281.616 1396.72 284.333L1385.84 296.459C1382.7 299.804 1377.04 298.759 1375.37 294.578L1369.51 279.316C1368.25 275.971 1364.27 274.298 1360.92 275.971L1346.48 283.288C1342.29 285.379 1337.47 282.452 1337.47 277.643V261.336C1337.47 257.573 1334.33 254.855 1330.77 255.064L1314.65 256.736C1310.04 257.155 1306.69 252.555 1308.16 248.374L1314.02 233.321C1315.28 229.976 1313.39 226.003 1309.84 225.167L1294.13 220.777C1289.74 219.522 1288.06 214.087 1291.2 210.532L1302.3 198.616C1304.81 195.898 1304.39 191.716 1301.46 189.417L1288.48 179.59C1284.71 176.872 1285.34 171.019 1289.53 169.137L1304.18 162.029C1307.53 160.356 1308.58 156.384 1306.69 153.248L1298.11 139.449C1295.6 135.477 1298.11 130.459 1302.72 130.041L1318.84 128.578C1322.61 128.16 1325.12 124.814 1324.49 121.26L1321.35 105.371C1320.51 100.772 1324.7 97.0085 1329.1 98.2629L1344.8 102.862C1348.36 103.908 1351.92 101.608 1352.55 98.0538L1355.48 82.1646C1356.32 77.5651 1361.55 75.4744 1365.32 78.4014L1378.3 88.2276C1381.23 90.5273 1385.42 89.6911 1387.3 86.5551L1395.89 72.7566C1398.4 68.7843 1404.05 68.7843 1406.57 72.7566H1406.77Z" fill="#BFABFF"/>
<path d="M1373.28 167.256C1373.28 161.402 1377.46 157.639 1385 157.639C1392.54 157.639 1396.73 161.402 1396.73 167.256C1396.73 173.11 1392.54 176.873 1385 176.873C1377.46 176.873 1373.28 173.11 1373.28 167.256ZM1390.23 167.256C1390.23 164.12 1388.35 162.238 1385 162.029C1381.65 162.029 1379.77 163.911 1379.77 167.256C1379.77 170.601 1381.65 172.482 1385 172.482C1388.35 172.482 1390.23 170.601 1390.23 167.256Z" fill="white"/>
<path d="M1399.03 158.057H1406.77L1415.15 169.555V158.057H1421.01V176.455H1413.47L1404.89 164.12V176.455H1399.03V158.057Z" fill="white"/>
<path d="M1322.61 187.326H1328.68V205.724H1322.61V187.326Z" fill="white"/>
<path d="M1331.61 187.326H1339.36L1347.73 198.825V187.326H1353.6V205.724H1346.06L1337.47 193.389V205.724H1331.61V187.326Z" fill="white"/>
<path d="M1366.58 186.699C1370.34 186.699 1373.28 187.327 1375.58 187.745V192.135C1373.07 191.299 1370.13 190.672 1367.2 190.672C1364.27 190.672 1363.02 191.299 1363.02 192.135C1363.02 195.271 1376.83 191.717 1376.83 199.871C1376.83 208.024 1373.28 206.143 1367.2 206.143C1361.13 206.143 1359.88 205.306 1356.94 204.052V199.243C1359.46 200.707 1362.81 201.543 1366.37 201.543C1369.93 201.543 1370.34 200.916 1370.34 199.871C1370.34 196.526 1356.53 199.871 1356.53 191.926C1356.53 188.163 1359.88 186.281 1366.37 186.281L1366.58 186.699Z" fill="white"/>
<path d="M1378.09 187.326H1397.98V191.926H1391.07V205.515H1385V191.926H1378.09V187.326Z" fill="white"/>
<path d="M1395.47 205.724L1404.68 187.326H1412.01L1421.22 205.724H1414.31L1412.64 201.961H1403.84L1402.17 205.724H1395.68H1395.47ZM1410.96 198.407L1408.24 192.135L1405.31 198.407H1410.96Z" fill="white"/>
<path d="M1422.9 187.326H1428.97V201.125H1440.48V205.724H1423.11V187.326H1422.9Z" fill="white"/>
<path d="M1442.58 187.326H1448.65V201.125H1460.17V205.724H1442.79V187.326H1442.58Z" fill="white"/>
<path d="M1462.47 187.326H1480.68V191.299H1468.33V194.435H1479.43V197.989H1468.33V201.334H1480.89V205.515H1462.47V187.117V187.326Z" fill="white"/>
<path d="M1130.19 460.995C1192.75 460.995 1243.47 410.356 1243.47 347.889C1243.47 285.422 1192.75 234.783 1130.19 234.783C1067.64 234.783 1016.92 285.422 1016.92 347.889C1016.92 410.356 1067.64 460.995 1130.19 460.995Z" fill="#4343FF"/>
<path d="M1101.93 330.537C1101.93 324.683 1106.12 320.92 1113.65 320.92C1121.19 320.92 1125.38 324.683 1125.38 330.537C1125.38 336.391 1121.19 340.154 1113.65 340.154C1106.12 340.154 1101.93 336.391 1101.93 330.537ZM1118.89 330.537C1118.89 327.401 1117 325.519 1113.65 325.31C1110.3 325.31 1108.42 327.192 1108.42 330.537C1108.42 333.882 1110.3 335.764 1113.65 335.764C1117 335.764 1118.89 333.882 1118.89 330.537Z" fill="white"/>
<path d="M1127.68 321.338H1135.43L1143.8 332.837V321.338H1149.67V339.736H1142.13L1133.54 327.401V339.736H1127.68V321.338Z" fill="white"/>
<path d="M1038.7 350.607H1056.29V354.789H1044.56V358.134H1055.03V362.106H1044.56V368.796H1038.49V350.398L1038.7 350.607Z" fill="white"/>
<path d="M1054.82 369.005L1064.03 350.607H1071.36L1080.57 369.005H1073.66L1071.99 365.242H1063.2L1061.52 369.005H1055.03H1054.82ZM1070.31 361.688L1067.59 355.416L1064.66 361.688H1070.31Z" fill="white"/>
<path d="M1082.25 350.607H1088.32V369.005H1082.25V350.607Z" fill="white"/>
<path d="M1090.83 350.607H1110.72V355.207H1103.81V368.796H1097.74V355.207H1090.62V350.607H1090.83Z" fill="white"/>
<path d="M1132.29 363.57L1137.52 350.607H1144.01L1135.64 369.005H1128.31L1119.94 350.607H1126.84L1132.29 363.57Z" fill="white"/>
<path d="M1146.11 350.607H1152.18V369.005H1146.11V350.607Z" fill="white"/>
<path d="M1166.62 363.57L1171.86 350.607H1178.35L1169.97 369.005H1162.65L1154.27 350.607H1161.18L1166.62 363.57Z" fill="white"/>
<path d="M1180.44 350.607H1194.89C1198.87 350.607 1201.17 352.907 1201.17 356.67C1201.17 360.434 1198.87 361.897 1195.1 362.106L1201.59 369.005H1194.26L1188.61 362.315H1186.31V369.005H1180.23V350.607H1180.44ZM1195.1 356.67C1195.1 355.207 1194.05 354.789 1191.96 354.789H1186.31V358.761H1192.17C1194.05 358.761 1195.1 358.134 1195.1 356.879V356.67Z" fill="white"/>
<path d="M1203.47 350.607H1221.69V354.58H1209.34V357.716H1220.43V361.27H1209.34V364.615H1221.9V368.796H1203.47V350.398V350.607Z" fill="white"/>
<path d="M590.222 124.812V179.17" stroke="#BFABFF" stroke-width="4.1" stroke-miterlimit="10"/>
<path d="M590.222 125.231C596.119 125.231 600.9 120.457 600.9 114.569C600.9 108.68 596.119 103.906 590.222 103.906C584.325 103.906 579.544 108.68 579.544 114.569C579.544 120.457 584.325 125.231 590.222 125.231Z" stroke="#BFABFF" stroke-width="4.1" stroke-miterlimit="10"/>
<path d="M591.896 181.262C669.155 181.262 702.027 236.247 741.389 283.078" stroke="#BFABFF" stroke-width="4.1" stroke-miterlimit="10"/>
<path d="M478.207 239.592C506.054 207.813 538.297 181.262 591.896 181.262" stroke="#BFABFF" stroke-width="4.1" stroke-miterlimit="10"/>
<path d="M854.869 405.383V351.025" stroke="#B9F26D" stroke-width="4.1" stroke-miterlimit="10"/>
<path d="M854.869 426.29C860.767 426.29 865.547 421.516 865.547 415.627C865.547 409.739 860.767 404.965 854.869 404.965C848.972 404.965 844.191 409.739 844.191 415.627C844.191 421.516 848.972 426.29 854.869 426.29Z" stroke="#B9F26D" stroke-width="4.1" stroke-miterlimit="10"/>
<path d="M741.389 283.079C770.701 317.784 803.572 347.89 860.731 347.89C917.89 347.89 965.627 300.85 1001.43 256.736" stroke="#B9F26D" stroke-width="4.1" stroke-miterlimit="10"/>
<path d="M1133.75 124.812V179.17" stroke="#4343FF" stroke-width="4.1" stroke-miterlimit="10"/>
<path d="M1133.75 125.231C1139.65 125.231 1144.43 120.457 1144.43 114.569C1144.43 108.68 1139.65 103.906 1133.75 103.906C1127.86 103.906 1123.08 108.68 1123.08 114.569C1123.08 120.457 1127.86 125.231 1133.75 125.231Z" stroke="#4343FF" stroke-width="4.1" stroke-miterlimit="10"/>
<path d="M1001.64 256.944C1033.25 218.058 1066.75 181.471 1129.77 181.471C1192.8 181.471 1236.97 231.856 1274.45 277.224" stroke="#4343FF" stroke-width="4.1" stroke-miterlimit="10"/>
<path d="M320.131 405.174V350.816" stroke="#4343FF" stroke-width="4.1" stroke-miterlimit="10"/>
<path d="M320.131 426.081C326.028 426.081 330.809 421.307 330.809 415.418C330.809 409.53 326.028 404.756 320.131 404.756C314.234 404.756 309.453 409.53 309.453 415.418C309.453 421.307 314.234 426.081 320.131 426.081Z" stroke="#4343FF" stroke-width="4.1" stroke-miterlimit="10"/>
<path d="M54.8555 181.262C189.063 181.262 189.063 347.889 323.271 347.889C457.479 347.889 436.123 287.677 478.207 239.592" stroke="#4343FF" stroke-width="4.1" stroke-miterlimit="10"/>
<path d="M1390.23 405.383V351.025" stroke="#BFABFF" stroke-width="4.1" stroke-miterlimit="10"/>
<path d="M1390.23 426.29C1396.13 426.29 1400.91 421.516 1400.91 415.627C1400.91 409.739 1396.13 404.965 1390.23 404.965C1384.34 404.965 1379.56 409.739 1379.56 415.627C1379.56 421.516 1384.34 426.29 1390.23 426.29Z" stroke="#BFABFF" stroke-width="4.1" stroke-miterlimit="10"/>
<path d="M1275.08 277.224C1305.65 314.229 1338.73 347.889 1399.24 347.889C1533.45 347.889 1533.45 181.262 1667.65 181.262" stroke="#BFABFF" stroke-width="4.1" stroke-miterlimit="10"/>
<path d="M52.7622 158.264L54.4372 160.982C54.856 161.609 55.6935 161.818 56.1122 161.4L58.6247 159.518C59.2528 158.891 60.2997 159.518 60.509 160.355L61.1372 163.491C61.1372 164.118 61.9746 164.536 62.6028 164.536L65.7434 163.7C66.5808 163.491 67.4183 164.118 67.209 165.163L66.5808 168.299C66.5808 168.926 66.9996 169.763 67.6277 169.763H70.7683C71.6058 170.181 72.2339 171.226 71.6058 171.853L69.9308 174.571C69.5121 175.198 69.9308 176.035 70.3496 176.244L73.2808 177.707C74.1183 178.125 74.1183 179.171 73.2808 179.798L70.7683 181.68C70.1402 182.098 70.1402 182.934 70.7683 183.352L72.862 185.652C73.4901 186.279 73.2808 187.324 72.2339 187.533L69.0933 188.37C68.4652 188.37 68.0464 189.206 68.2558 190.042L69.3027 192.969C69.7214 193.806 68.8839 194.642 68.0465 194.642L64.9059 194.224C64.2777 194.224 63.6496 194.642 63.6496 195.478V198.614C63.6496 199.45 62.6028 200.078 61.9746 199.659L59.2528 198.196C58.6247 197.778 57.7872 198.196 57.5778 198.823L56.531 201.75C56.1122 202.586 55.0653 202.795 54.4372 202.168L52.3435 199.868C51.9248 199.45 51.0873 199.45 50.4591 199.868L48.3654 202.168C47.7373 202.795 46.6904 202.586 46.2717 201.75L45.2248 198.823C45.0155 198.196 44.178 197.778 43.5498 198.196L40.828 199.659C39.9905 200.078 39.153 199.659 39.153 198.614V195.478C39.153 194.851 38.5249 194.224 37.8968 194.224L34.7562 194.642C33.9187 194.642 33.0812 193.806 33.5 192.969L34.5468 190.042C34.7562 189.415 34.5468 188.579 33.7093 188.37L30.5687 187.533C29.7312 187.324 29.3125 186.279 29.9406 185.652L32.0343 183.352C32.4531 182.934 32.4531 181.889 32.0343 181.68L29.5219 179.798C28.8938 179.171 28.8938 178.125 29.5219 177.707L32.4531 176.244C33.0812 175.826 33.2906 175.198 32.8718 174.571L31.1969 171.853C30.7781 171.017 31.1969 170.181 32.0343 169.972H35.1749C35.803 169.554 36.4312 168.926 36.2218 168.299L35.5937 165.163C35.5937 164.327 36.2218 163.491 37.0593 163.7L40.1999 164.536C40.828 164.536 41.6655 164.327 41.6655 163.491L42.2936 160.355C42.2936 159.518 43.5498 159.1 44.178 159.518L46.6904 161.4C47.3186 161.818 48.156 161.609 48.3654 160.982L50.0404 158.264C50.4591 157.428 51.7154 157.428 52.1341 158.264H52.7622Z" fill="#4343FF"/>
<path d="M55.275 178.962C56.3157 178.962 57.1593 178.12 57.1593 177.081C57.1593 176.042 56.3157 175.199 55.275 175.199C54.2343 175.199 53.3906 176.042 53.3906 177.081C53.3906 178.12 54.2343 178.962 55.275 178.962Z" fill="white"/>
<path d="M48.1558 178.962C49.1965 178.962 50.0402 178.12 50.0402 177.081C50.0402 176.042 49.1965 175.199 48.1558 175.199C47.1151 175.199 46.2715 176.042 46.2715 177.081C46.2715 178.12 47.1151 178.962 48.1558 178.962Z" fill="white"/>
<path d="M41.875 180.844C41.875 180.844 44.8062 184.816 51.5061 185.234C58.2061 185.025 61.1373 180.844 61.1373 180.844" stroke="white" stroke-width="0.5" stroke-linecap="round" stroke-linejoin="round"/>
<path d="M320.968 395.557L322.643 398.275C323.062 398.902 323.9 399.111 324.318 398.693L326.831 396.811C327.459 396.184 328.506 396.811 328.715 397.648L329.343 400.784C329.343 401.411 330.181 402.038 330.809 401.62L333.949 400.784C334.787 400.575 335.624 401.202 335.415 402.247L334.787 405.383C334.787 406.01 335.206 406.638 335.834 406.847H338.974C339.812 407.265 340.44 408.31 339.812 408.937L338.137 411.655C337.718 412.282 338.137 413.119 338.556 413.328L341.487 414.791C342.324 415.209 342.324 416.255 341.487 416.882L338.974 418.763C338.346 419.182 338.346 420.018 338.974 420.645L341.068 422.945C341.696 423.572 341.487 424.617 340.44 424.826L337.299 425.663C336.671 425.663 336.253 426.499 336.462 427.335L337.509 430.262C337.927 431.098 337.09 431.935 336.253 431.935H333.112C332.484 431.517 331.856 431.935 331.856 432.771V435.907C331.856 436.743 330.809 437.371 330.181 436.952L327.459 435.489C326.831 435.28 325.993 435.489 325.784 436.116L324.737 439.043C324.318 439.879 323.271 440.088 322.643 439.461L320.55 437.161C320.131 436.743 319.293 436.743 318.665 437.161L316.571 439.461C315.943 440.088 314.896 439.879 314.478 439.043L313.431 436.116C313.222 435.489 312.384 435.071 311.756 435.489L309.034 436.952C308.197 437.371 307.359 436.952 307.359 435.907V432.771C307.359 432.144 306.731 431.517 306.103 431.517H302.962C302.125 431.935 301.287 431.098 301.706 430.262L302.753 427.335C302.962 426.708 302.753 425.872 301.915 425.663L298.775 424.826C297.937 424.617 297.519 423.572 298.147 422.945L300.24 420.645C300.659 420.227 300.659 419.391 300.24 418.763L297.728 416.882C297.1 416.255 297.1 415.209 297.728 414.791L300.659 413.328C301.287 413.119 301.497 412.282 301.078 411.655L299.403 408.937C298.984 408.101 299.403 407.265 300.24 407.056H303.381C304.009 406.637 304.637 406.01 304.428 405.383L303.8 402.247C303.8 401.411 304.428 400.575 305.265 400.784L308.406 401.62C309.034 401.829 309.872 401.411 309.872 400.784L310.5 397.648C310.5 396.811 311.756 396.393 312.384 396.811L314.896 398.693C315.525 399.111 316.362 398.902 316.571 398.275L318.246 395.557C318.665 394.721 319.921 394.721 320.34 395.557H320.968Z" fill="#4343FF"/>
<path d="M323.481 416.255C324.522 416.255 325.365 415.413 325.365 414.374C325.365 413.335 324.522 412.492 323.481 412.492C322.44 412.492 321.597 413.335 321.597 414.374C321.597 415.413 322.44 416.255 323.481 416.255Z" fill="white"/>
<path d="M316.362 416.255C317.403 416.255 318.246 415.413 318.246 414.374C318.246 413.335 317.403 412.492 316.362 412.492C315.321 412.492 314.478 413.335 314.478 414.374C314.478 415.413 315.321 416.255 316.362 416.255Z" fill="white"/>
<path d="M310.081 418.137C310.081 418.137 313.012 422.109 319.712 422.527C326.412 422.318 329.343 418.137 329.343 418.137" stroke="white" stroke-width="0.5" stroke-linecap="round" stroke-linejoin="round"/>
<path d="M855.707 397.438L857.382 400.156C857.801 400.783 858.638 400.992 859.057 400.574L861.569 398.692C862.197 398.065 863.244 398.692 863.454 399.528L864.082 402.664C864.082 403.292 864.919 403.919 865.547 403.501L868.688 402.664C869.525 402.455 870.363 403.083 870.154 404.128L869.525 407.264C869.525 407.891 869.944 408.518 870.572 408.727H873.713C874.55 409.146 875.178 410.191 874.55 410.818L872.875 413.536C872.457 414.163 872.875 414.999 873.294 415.209L876.225 416.672C877.063 417.09 877.063 418.135 876.225 418.763L873.713 420.644C873.085 421.062 873.085 421.899 873.713 422.526L875.807 424.826C876.435 425.453 876.225 426.498 875.178 426.707L872.038 427.544C871.41 427.544 870.991 428.38 871.2 429.216L872.457 432.143C872.875 432.979 872.038 433.816 871.2 433.816H868.06C867.432 433.397 866.804 433.816 866.804 434.652V437.788C866.804 438.624 865.966 439.251 865.129 438.833L862.407 437.37C861.779 437.161 860.941 437.37 860.732 437.997L859.685 440.924C859.266 441.76 858.219 441.969 857.591 441.342L855.497 439.042C855.079 438.624 854.241 438.624 853.613 439.042L851.519 441.342C850.891 441.969 849.844 441.76 849.426 440.924L848.379 437.997C848.169 437.37 847.332 436.952 846.704 437.37L843.982 438.833C843.144 439.251 842.307 438.833 842.307 437.788V434.652C842.307 434.025 841.679 433.397 841.051 433.397H837.91C837.073 433.816 836.235 432.979 836.654 432.143L837.91 429.216C838.12 428.589 837.91 427.753 837.073 427.544L833.932 426.707C833.095 426.498 832.676 425.453 833.304 424.826L835.398 422.526C835.816 422.108 835.816 421.271 835.398 420.644L832.885 418.763C832.257 418.135 832.257 417.09 832.885 416.672L835.816 415.209C836.445 414.999 836.654 414.163 836.235 413.536L834.56 410.818C834.141 409.982 834.56 409.146 835.398 408.936H838.538C839.166 408.518 839.794 407.891 839.585 407.264L838.957 404.128C838.957 403.292 839.585 402.455 840.423 402.664L843.563 403.501C844.191 403.71 845.029 403.292 845.029 402.664L845.657 399.528C845.657 398.692 846.913 398.274 847.541 398.692L850.054 400.574C850.682 400.992 851.519 400.783 851.729 400.156L853.404 397.438C853.822 396.601 855.079 396.601 855.497 397.438H855.707Z" fill="#B9F26D"/>
<path d="M858.429 418.136C859.47 418.136 860.314 417.294 860.314 416.255C860.314 415.215 859.47 414.373 858.429 414.373C857.389 414.373 856.545 415.215 856.545 416.255C856.545 417.294 857.389 418.136 858.429 418.136Z" fill="white"/>
<path d="M851.31 418.136C852.351 418.136 853.194 417.294 853.194 416.255C853.194 415.215 852.351 414.373 851.31 414.373C850.269 414.373 849.426 415.215 849.426 416.255C849.426 417.294 850.269 418.136 851.31 418.136Z" fill="white"/>
<path d="M845.029 420.227C845.029 420.227 847.961 424.199 854.66 424.617C861.36 424.408 864.292 420.227 864.292 420.227" stroke="white" stroke-width="0.5" stroke-linecap="round" stroke-linejoin="round"/>
<path d="M1391.28 394.512L1392.96 397.23C1393.37 397.857 1394.21 398.066 1394.63 397.648L1397.14 395.766C1397.77 395.139 1398.82 395.766 1399.03 396.603L1399.66 399.739C1399.66 400.366 1400.49 400.993 1401.12 400.575L1404.26 399.739C1405.1 399.53 1405.94 400.157 1405.73 401.202L1405.1 404.338C1405.1 404.965 1405.52 405.593 1406.15 405.802H1409.29C1410.12 406.22 1410.75 407.265 1410.12 407.892L1408.45 410.61C1408.03 411.237 1408.45 412.074 1408.87 412.283L1411.8 413.746C1412.64 414.164 1412.64 415.21 1411.8 415.837L1409.29 417.719C1408.66 418.137 1408.66 418.973 1409.29 419.6L1411.38 421.9C1412.01 422.527 1411.8 423.572 1410.75 423.781L1407.61 424.618C1406.98 424.618 1406.57 425.454 1406.77 426.29L1408.03 429.217C1408.45 430.054 1407.61 430.89 1406.77 430.89H1403.63C1403.01 430.472 1402.38 430.89 1402.38 431.726V434.862C1402.38 435.698 1401.54 436.326 1400.7 435.907L1397.98 434.444C1397.35 434.235 1396.52 434.444 1396.31 435.071L1395.26 437.998C1394.84 438.834 1393.79 439.043 1393.17 438.416L1391.07 436.117C1390.65 435.698 1389.82 435.698 1389.19 436.117L1387.09 438.416C1386.47 439.043 1385.42 438.834 1385 437.998L1383.95 435.071C1383.74 434.444 1382.91 434.026 1382.28 434.444L1379.56 435.907C1378.72 436.326 1377.88 435.907 1377.88 434.862V431.726C1377.88 431.099 1377.25 430.472 1376.62 430.472H1373.48C1372.65 430.89 1371.81 430.054 1372.23 429.217L1373.48 426.29C1373.69 425.663 1373.48 424.827 1372.65 424.618L1369.51 423.781C1368.67 423.572 1368.25 422.527 1368.88 421.9L1370.97 419.6C1371.39 419.182 1371.39 418.346 1370.97 417.719L1368.46 415.837C1367.83 415.21 1367.83 414.164 1368.46 413.746L1371.39 412.283C1372.02 412.074 1372.23 411.237 1371.81 410.61L1370.13 407.892C1369.72 407.056 1370.13 406.22 1370.97 406.011H1374.11C1374.74 405.593 1375.37 404.965 1375.16 404.338L1374.53 401.202C1374.53 400.366 1375.16 399.53 1376 399.739L1379.14 400.575C1379.77 400.784 1380.6 400.366 1380.6 399.739L1381.23 396.603C1381.23 395.766 1382.49 395.348 1383.12 395.766L1385.63 397.648C1386.26 398.066 1387.09 397.857 1387.3 397.23L1388.98 394.512C1389.4 393.676 1390.65 393.676 1391.07 394.512H1391.28Z" fill="#BFABFF"/>
<path d="M1393.79 415.21C1394.84 415.21 1395.68 414.368 1395.68 413.329C1395.68 412.29 1394.84 411.447 1393.79 411.447C1392.75 411.447 1391.91 412.29 1391.91 413.329C1391.91 414.368 1392.75 415.21 1393.79 415.21Z" fill="white"/>
<path d="M1386.88 415.21C1387.93 415.21 1388.77 414.368 1388.77 413.329C1388.77 412.29 1387.93 411.447 1386.88 411.447C1385.84 411.447 1385 412.29 1385 413.329C1385 414.368 1385.84 415.21 1386.88 415.21Z" fill="white"/>
<path d="M1380.6 417.092C1380.6 417.092 1383.53 421.064 1390.23 421.482C1396.93 421.273 1399.87 417.092 1399.87 417.092" stroke="white" stroke-width="0.5" stroke-linecap="round" stroke-linejoin="round"/>
<path d="M1678.33 158.055L1680.01 160.773C1680.43 161.4 1681.26 161.609 1681.68 161.191L1684.19 159.309C1684.82 158.682 1685.87 159.309 1686.08 160.146L1686.71 163.282C1686.71 163.909 1687.54 164.327 1688.17 164.327L1691.31 163.491C1692.15 163.282 1692.99 163.909 1692.78 164.954L1692.15 168.09C1692.15 168.717 1692.57 169.554 1693.2 169.554H1696.34C1697.18 169.972 1697.8 171.017 1697.18 171.644L1695.5 174.362C1695.08 174.989 1695.5 175.826 1695.92 176.035L1698.85 177.498C1699.69 177.916 1699.69 178.962 1698.85 179.589L1696.34 181.471C1695.71 181.889 1695.71 182.725 1696.34 183.143L1698.43 185.443C1699.06 186.07 1698.85 187.115 1697.8 187.324L1694.66 188.161C1694.03 188.161 1693.62 188.997 1693.83 189.833L1695.08 192.76C1695.5 193.596 1694.66 194.433 1693.83 194.433L1690.68 194.015C1690.06 194.015 1689.43 194.433 1689.43 195.269V198.405C1689.43 199.241 1688.59 199.869 1687.75 199.45L1685.03 197.987C1684.4 197.569 1683.57 197.987 1683.36 198.614L1682.31 201.541C1681.89 202.377 1680.84 202.586 1680.22 201.959L1678.12 199.659C1677.7 199.241 1676.87 199.241 1676.24 199.659L1674.14 201.959C1673.52 202.586 1672.47 202.377 1672.05 201.541L1671 198.614C1670.79 197.987 1669.96 197.569 1669.33 197.987L1666.61 199.45C1665.77 199.869 1664.93 199.45 1664.93 198.405V195.269C1664.93 194.642 1664.3 194.015 1663.68 194.015L1660.54 194.433C1659.7 194.433 1658.86 193.596 1659.28 192.76L1660.54 189.833C1660.74 189.206 1660.54 188.37 1659.7 188.161L1656.56 187.324C1655.72 187.115 1655.3 186.07 1655.93 185.443L1658.02 183.143C1658.44 182.725 1658.44 181.68 1658.02 181.471L1655.51 179.589C1654.88 178.962 1654.88 177.916 1655.51 177.498L1658.44 176.035C1659.07 175.617 1659.28 174.989 1658.86 174.362L1657.19 171.644C1656.77 170.808 1657.19 169.972 1658.02 169.763H1661.16C1661.79 169.345 1662.42 168.717 1662.21 168.09L1661.58 164.954C1661.58 164.118 1662.21 163.282 1663.05 163.491L1666.19 164.327C1666.82 164.327 1667.65 164.118 1667.65 163.282L1668.28 160.146C1668.28 159.309 1669.54 158.891 1670.17 159.309L1672.68 161.191C1673.31 161.609 1674.14 161.4 1674.35 160.773L1676.03 158.055C1676.45 157.219 1677.7 157.219 1678.12 158.055H1678.33Z" fill="#BFABFF"/>
<path d="M1680.85 178.753C1681.89 178.753 1682.73 177.911 1682.73 176.872C1682.73 175.833 1681.89 174.99 1680.85 174.99C1679.8 174.99 1678.96 175.833 1678.96 176.872C1678.96 177.911 1679.8 178.753 1680.85 178.753Z" fill="white"/>
<path d="M1673.73 178.753C1674.77 178.753 1675.61 177.911 1675.61 176.872C1675.61 175.833 1674.77 174.99 1673.73 174.99C1672.69 174.99 1671.84 175.833 1671.84 176.872C1671.84 177.911 1672.69 178.753 1673.73 178.753Z" fill="white"/>
<path d="M1667.65 180.635C1667.65 180.635 1670.59 184.607 1677.29 185.025C1683.99 184.816 1686.92 180.635 1686.92 180.635" stroke="white" stroke-width="0.5" stroke-linecap="round" stroke-linejoin="round"/>
<path d="M1675.4 40.7691C1676.44 40.7691 1677.29 39.9267 1677.29 38.8875C1677.29 37.8483 1676.44 37.0059 1675.4 37.0059C1674.36 37.0059 1673.52 37.8483 1673.52 38.8875C1673.52 39.9267 1674.36 40.7691 1675.4 40.7691Z" fill="white"/>
<path d="M1668.28 40.7691C1669.32 40.7691 1670.17 39.9267 1670.17 38.8875C1670.17 37.8483 1669.32 37.0059 1668.28 37.0059C1667.24 37.0059 1666.4 37.8483 1666.4 38.8875C1666.4 39.9267 1667.24 40.7691 1668.28 40.7691Z" fill="white"/>
<path d="M1662.21 42.8594C1662.21 42.8594 1665.14 47.0407 1671.84 47.2498C1678.54 47.0407 1681.47 42.8594 1681.47 42.8594" stroke="white" stroke-width="0.5" stroke-linecap="round" stroke-linejoin="round"/>
<path d="M590.012 131.504C602.154 131.504 611.997 121.676 611.997 109.552C611.997 97.4279 602.154 87.5996 590.012 87.5996C577.871 87.5996 568.028 97.4279 568.028 109.552C568.028 121.676 577.871 131.504 590.012 131.504Z" fill="#BFABFF"/>
<path d="M593.572 108.507C594.613 108.507 595.456 107.665 595.456 106.626C595.456 105.587 594.613 104.744 593.572 104.744C592.531 104.744 591.688 105.587 591.688 106.626C591.688 107.665 592.531 108.507 593.572 108.507Z" fill="white"/>
<path d="M586.663 108.507C587.703 108.507 588.547 107.665 588.547 106.626C588.547 105.587 587.703 104.744 586.663 104.744C585.622 104.744 584.778 105.587 584.778 106.626C584.778 107.665 585.622 108.507 586.663 108.507Z" fill="white"/>
<path d="M580.382 110.389C580.382 110.389 583.313 114.361 590.013 114.57C596.713 114.57 599.644 110.389 599.644 110.389" stroke="white" stroke-width="0.5" stroke-linecap="round" stroke-linejoin="round"/>
<path d="M1134.17 131.922C1146.43 131.922 1156.37 122 1156.37 109.761C1156.37 97.5215 1146.43 87.5996 1134.17 87.5996C1121.91 87.5996 1111.98 97.5215 1111.98 109.761C1111.98 122 1121.91 131.922 1134.17 131.922Z" fill="#4343FF"/>
<path d="M1137.73 108.507C1138.77 108.507 1139.62 107.665 1139.62 106.626C1139.62 105.587 1138.77 104.744 1137.73 104.744C1136.69 104.744 1135.85 105.587 1135.85 106.626C1135.85 107.665 1136.69 108.507 1137.73 108.507Z" fill="white"/>
<path d="M1130.61 108.507C1131.65 108.507 1132.5 107.665 1132.5 106.626C1132.5 105.587 1131.65 104.744 1130.61 104.744C1129.57 104.744 1128.73 105.587 1128.73 106.626C1128.73 107.665 1129.57 108.507 1130.61 108.507Z" fill="white"/>
<path d="M1124.54 110.389C1124.54 110.389 1127.47 114.361 1134.17 114.57C1140.87 114.57 1143.8 110.389 1143.8 110.389" stroke="white" stroke-width="0.5" stroke-linecap="round" stroke-linejoin="round"/>
</svg>
